<svg width="50" height="34" viewBox="0 0 50 34" fill="none" xmlns="http://www.w3.org/2000/svg">
<path d="M12 24.9375C11.5179 24.9375 11.0466 25.0805 10.6458 25.3483C10.245 25.6161 9.93253 25.9968 9.74804 26.4422C9.56356 26.8876 9.51529 27.3777 9.60934 27.8505C9.70339 28.3234 9.93554 28.7577 10.2764 29.0986C10.6173 29.4395 11.0516 29.6716 11.5245 29.7657C11.9973 29.8597 12.4874 29.8114 12.9328 29.627C13.3782 29.4425 13.7589 29.13 14.0267 28.7292C14.2945 28.3284 14.4375 27.8571 14.4375 27.375C14.4375 26.7285 14.1807 26.1085 13.7236 25.6514C13.2665 25.1943 12.6465 24.9375 12 24.9375ZM12 28.1875C11.8393 28.1875 11.6822 28.1398 11.5486 28.0506C11.415 27.9613 11.3108 27.8344 11.2493 27.6859C11.1879 27.5375 11.1718 27.3741 11.2031 27.2165C11.2345 27.0589 11.3118 26.9141 11.4255 26.8005C11.5391 26.6868 11.6839 26.6095 11.8415 26.5781C11.9991 26.5468 12.1625 26.5629 12.3109 26.6243C12.4594 26.6858 12.5863 26.79 12.6756 26.9236C12.7648 27.0572 12.8125 27.2143 12.8125 27.375C12.8125 27.5905 12.7269 27.7972 12.5745 27.9495C12.4222 28.1019 12.2155 28.1875 12 28.1875ZM39.625 24.9375C39.1429 24.9375 38.6716 25.0805 38.2708 25.3483C37.87 25.6161 37.5575 25.9968 37.373 26.4422C37.1886 26.8876 37.1403 27.3777 37.2343 27.8505C37.3284 28.3234 37.5605 28.7577 37.9014 29.0986C38.2423 29.4395 38.6766 29.6716 39.1495 29.7657C39.6223 29.8597 40.1124 29.8114 40.5578 29.627C41.0032 29.4425 41.3839 29.13 41.6517 28.7292C41.9195 28.3284 42.0625 27.8571 42.0625 27.375C42.0625 26.7285 41.8057 26.1085 41.3486 25.6514C40.8915 25.1943 40.2715 24.9375 39.625 24.9375ZM39.625 28.1875C39.4643 28.1875 39.3072 28.1398 39.1736 28.0506C39.04 27.9613 38.9358 27.8344 38.8743 27.6859C38.8129 27.5375 38.7968 27.3741 38.8281 27.2165C38.8595 27.0589 38.9368 26.9141 39.0505 26.8005C39.1641 26.6868 39.3089 26.6095 39.4665 26.5781C39.6241 26.5468 39.7875 26.5629 39.9359 26.6243C40.0844 26.6858 40.2113 26.79 40.3006 26.9236C40.3898 27.0572 40.4375 27.2143 40.4375 27.375C40.4375 27.5905 40.3519 27.7972 40.1995 27.9495C40.0472 28.1019 39.8405 28.1875 39.625 28.1875Z" fill="black"/>
<path d="M48.5625 24.125V17.625C48.5619 17.503 48.5339 17.3826 48.4804 17.2729C48.427 17.1632 48.3495 17.0669 48.2537 16.9913L44.1912 13.7412C44.049 13.6252 43.871 13.5621 43.6875 13.5625H42.7287L40.9738 4.58438C40.7738 3.67807 40.2715 2.8667 39.5496 2.28349C38.8276 1.70029 37.9287 1.37993 37.0006 1.375H32.3125C32.3125 1.15951 32.2269 0.952849 32.0745 0.800476C31.9222 0.648103 31.7155 0.5625 31.5 0.5625H1.4375C1.22201 0.5625 1.01535 0.648103 0.862976 0.800476C0.710602 0.952849 0.625 1.15951 0.625 1.375V24.9375C0.625 25.153 0.710602 25.3597 0.862976 25.512C1.01535 25.6644 1.22201 25.75 1.4375 25.75H3.0625V27.375C3.0625 27.5905 3.1481 27.7972 3.30048 27.9495C3.45285 28.1019 3.65951 28.1875 3.875 28.1875H6.3775C6.57177 29.5402 7.2472 30.7775 8.27993 31.6725C9.31265 32.5675 10.6334 33.0602 12 33.0602C13.3666 33.0602 14.6874 32.5675 15.7201 31.6725C16.7528 30.7775 17.4282 29.5402 17.6225 28.1875H34.0025C34.1968 29.5402 34.8722 30.7775 35.9049 31.6725C36.9376 32.5675 38.2584 33.0602 39.625 33.0602C40.9916 33.0602 42.3124 32.5675 43.3451 31.6725C44.3778 30.7775 45.0532 29.5402 45.2475 28.1875H48.5625C48.778 28.1875 48.9847 28.1019 49.137 27.9495C49.2894 27.7972 49.375 27.5905 49.375 27.375V24.9375C49.375 24.722 49.2894 24.5153 49.137 24.363C48.9847 24.2106 48.778 24.125 48.5625 24.125ZM32.3125 3H37.0006C37.5548 3.00241 38.0918 3.19248 38.5242 3.53923C38.9565 3.88597 39.2586 4.36893 39.3813 4.90938L41.0794 13.5625H32.3125V3ZM6.3775 26.5625H4.6875V25.75H6.54812C6.47411 26.0169 6.41712 26.2883 6.3775 26.5625ZM12 31.4375C11.1965 31.4375 10.4111 31.1992 9.743 30.7528C9.07492 30.3065 8.55422 29.672 8.24674 28.9297C7.93926 28.1873 7.85881 27.3705 8.01556 26.5824C8.17231 25.7944 8.55923 25.0705 9.12738 24.5024C9.69553 23.9342 10.4194 23.5473 11.2074 23.3906C11.9955 23.2338 12.8123 23.3143 13.5547 23.6217C14.297 23.9292 14.9315 24.4499 15.3778 25.118C15.8242 25.7861 16.0625 26.5715 16.0625 27.375C16.0625 28.4524 15.6345 29.4858 14.8726 30.2476C14.1108 31.0095 13.0774 31.4375 12 31.4375ZM12 21.6875C11.0839 21.6888 10.1816 21.911 9.36974 22.3353C8.55785 22.7597 7.86029 23.3736 7.33625 24.125H2.25V2.1875H30.6875V24.125H16.6637C16.1397 23.3736 15.4421 22.7597 14.6303 22.3353C13.8184 21.911 12.9161 21.6888 12 21.6875ZM34.0025 26.5625H17.6225C17.5829 26.2883 17.5259 26.0169 17.4519 25.75H34.1812C34.0977 26.015 34.0379 26.2869 34.0025 26.5625ZM39.625 31.4375C38.5476 31.4375 37.5142 31.0095 36.7524 30.2476C35.9905 29.4858 35.5625 28.4524 35.5625 27.375C35.5587 26.6639 35.7467 25.965 36.1069 25.3519C36.1069 25.3437 36.1069 25.3438 36.115 25.3438C36.4697 24.7263 36.9809 24.2134 37.5972 23.8566C38.2135 23.4999 38.9129 23.3121 39.625 23.3121C40.3371 23.3121 41.0365 23.4999 41.6528 23.8566C42.2691 24.2134 42.7803 24.7263 43.135 25.3438C43.1431 25.3438 43.1431 25.3437 43.1431 25.3519C43.5033 25.965 43.6913 26.6639 43.6875 27.375C43.6875 28.4524 43.2595 29.4858 42.4976 30.2476C41.7358 31.0095 40.7024 31.4375 39.625 31.4375ZM39.625 21.6875C38.7092 21.6902 37.8074 21.9131 36.9957 22.3373C36.1841 22.7615 35.4863 23.3746 34.9613 24.125H32.3125V15.1875H43.4031L46.9375 18.015V24.125H44.2887C43.7637 23.3746 43.0659 22.7615 42.2543 22.3373C41.4426 21.9131 40.5408 21.6902 39.625 21.6875ZM47.75 26.5625H45.2475C45.2121 26.2869 45.1523 26.015 45.0688 25.75H47.75V26.5625Z" fill="black"/>
<path d="M14.4375 12.75H28.25C28.4655 12.75 28.6722 12.6644 28.8245 12.512C28.9769 12.3597 29.0625 12.153 29.0625 11.9375V5.4375C29.0625 5.22201 28.9769 5.01535 28.8245 4.86298C28.6722 4.7106 28.4655 4.625 28.25 4.625H14.4375C14.222 4.625 14.0153 4.7106 13.863 4.86298C13.7106 5.01535 13.625 5.22201 13.625 5.4375V11.9375C13.625 12.153 13.7106 12.3597 13.863 12.512C14.0153 12.6644 14.222 12.75 14.4375 12.75ZM15.25 6.25H27.4375V11.125H15.25V6.25Z" fill="black"/>
<path d="M11.1875 4.625H4.6875V6.25H11.1875V4.625Z" fill="black"/>
<path d="M11.1875 7.875H6.3125V9.5H11.1875V7.875Z" fill="black"/>
<path d="M11.1875 11.125H7.9375V12.75H11.1875V11.125Z" fill="black"/>
</svg>
